<?xml version="1.0" standalone="no"?><!DOCTYPE svg PUBLIC "-//W3C//DTD SVG 1.1//EN" "http://www.w3.org/Graphics/SVG/1.1/DTD/svg11.dtd"><svg t="1630784717970" class="icon" viewBox="0 0 1024 1024" version="1.1" xmlns="http://www.w3.org/2000/svg" p-id="11511" xmlns:xlink="http://www.w3.org/1999/xlink" width="200" height="200"><defs><style type="text/css"></style></defs><path d="M416 64c-52.64 0-96 43.36-96 96v344l-24-6.016c-4.992-6.496-7.136-10.624-20-19.968-20.48-15.04-52.256-30.016-95.008-30.016C135.36 448 96 489.28 96 540.992v13.024l8.992 9.984L320 780.992V960h512V420.992c0-45.12-31.872-84.48-76-93.984L512 274.016V160c0-52.64-43.36-96-96-96z m0 64c18.112 0 32 13.888 32 32v166.016l24.992 5.984 270.016 56.992c14.976 3.264 24.992 16.768 24.992 32V736H364.992l-201.984-204.992c2.624-13.504 8.128-19.008 17.984-19.008 28.896 0 46.752 8.736 58.016 16.992 11.232 8.256 13.984 14.016 13.984 14.016l6.016 10.976 12.992 4 72 19.008 40 10.016V160c0-18.112 13.888-32 32-32z m-32 672h384v96H384z" p-id="11512"></path></svg>