<?xml version="1.0" standalone="no"?><!DOCTYPE svg PUBLIC "-//W3C//DTD SVG 1.1//EN" "http://www.w3.org/Graphics/SVG/1.1/DTD/svg11.dtd"><svg t="1634318005628" class="icon" viewBox="0 0 1024 1024" version="1.1" xmlns="http://www.w3.org/2000/svg" p-id="3521" width="24" height="24" xmlns:xlink="http://www.w3.org/1999/xlink"><defs><style type="text/css"></style></defs><path d="M0 551.148426V472.33983c0-10.746627 8.69965-19.446277 19.446277-19.446277h984.083958c10.746627 0 19.446277 8.69965 19.446277 19.446277v78.808596c0 10.746627-8.69965 19.446277-19.446277 19.446277H19.446277c-10.746627 0-19.446277-8.69965-19.446277-19.446277zM114.118941 153.523238v240.007996c0 10.746627-8.69965 19.446277-19.446277 19.446277H19.446277C8.69965 412.977511 0 404.277861 0 393.531234V78.808596C0 35.310345 35.310345 0 78.808596 0h314.722638c10.746627 0 19.446277 8.69965 19.446277 19.446277v75.226387c0 10.746627-8.69965 19.446277-19.446277 19.446277H153.523238c-21.493253 0-39.404298 17.911044-39.404297 39.404297z m795.250374 0c0-22.004998-17.3993-39.404298-39.404298-39.404297h-240.007996c-10.746627 0-19.446277-8.69965-19.446276-19.446277V19.446277c0-10.746627 8.69965-19.446277 19.446276-19.446277h315.234383c43.498251 0 78.808596 35.310345 78.808596 78.808596v314.722638c0 10.746627-8.69965 19.446277-19.446277 19.446277h-75.226387c-10.746627 0-19.446277-8.69965-19.446277-19.446277l-0.511744-240.007996z m0 716.441779v-240.007996c0-10.746627 8.69965-19.446277 19.446277-19.446276h75.226387c10.746627 0 19.446277 8.69965 19.446277 19.446276v315.234383c0 43.498251-35.310345 78.808596-78.808596 78.808596h-314.722639c-10.746627 0-19.446277-8.69965-19.446276-19.446277v-75.226387c0-10.746627 8.69965-19.446277 19.446276-19.446277H869.965017c21.493253-0.511744 39.404298-18.422789 39.404298-39.916042z m-795.250374 0c0 21.493253 17.911044 39.404298 39.404297 39.404298h240.007996c10.746627 0 19.446277 8.69965 19.446277 19.446277v75.226387c0 10.746627-8.69965 19.446277-19.446277 19.446277H78.808596C35.310345 1023.488256 0 988.177911 0 944.67966v-314.722639c0-10.746627 8.69965-19.446277 19.446277-19.446276h75.226387c10.746627 0 19.446277 8.69965 19.446277 19.446276V869.965017z" p-id="3522" fill="#000000"></path></svg>