<?xml version="1.0" encoding="UTF-8"?>
<svg width="24px" height="24px" viewBox="0 0 24 24" version="1.1" xmlns="http://www.w3.org/2000/svg" xmlns:xlink="http://www.w3.org/1999/xlink">
    <title>microphone_plus</title>
    <g id="Page-1" stroke="none" stroke-width="1" fill="none" fill-rule="evenodd">
        <g id="microphone_plus" transform="translate(2.000000, 2.000000)" fill="#000000" fill-rule="nonzero">
            <path d="M7,0 C8.65685425,0 10,1.34314575 10,3 L10,9 C10,10.6568542 8.65685425,12 7,12 C5.34314575,12 4,10.6568542 4,9 L4,3 C4,1.34314575 5.34314575,0 7,0 Z M7,2 C6.44771525,2 6,2.42244909 6,2.97410573 L6,2.97410573 L6,8.94697956 C6,9.4986362 6.44771525,10 7,10 C7.55228475,10 8,9.4986362 8,8.94697956 L8,8.94697956 L8,3 C8,2.44834336 7.55228475,2 7,2 Z M14,9 C14,12.5 11.44,15.43 8,15.93 L8,19 L6,19 L6,15.93 C2.56,15.43 0,12.5 0,9 L2,9 C2,11.7614237 4.23857625,14 7,14 C8.32608245,14 9.59785201,13.4732158 10.5355339,12.5355339 C11.4732158,11.597852 12,10.3260824 12,9 L14,9 M12,3 L15,3 L15,0 L17,0 L17,3 L20,3 L20,5 L17,5 L17,8 L15,8 L15,5 L12,5 L12,3 Z" id="Shape"></path>
        </g>
    </g>
</svg>